<?xml version="1.0" encoding="UTF-8"?>
<svg width="80.00px" height="80.00px" viewBox="0 0 64 64" version="1.1" xmlns="http://www.w3.org/2000/svg" xmlns:xlink="http://www.w3.org/1999/xlink"><!-- Generator: Sketch 64 (93537) - https://sketch.com -->
<title>Icon-Architecture/48/Arch_Amazon-API-Gateway_48</title><desc>Created with Sketch.</desc><defs><linearGradient x1="0%" y1="100%" x2="100%" y2="0%" id="linearGradient-1"><stop stop-color="#4D27A8" offset="0%"></stop><stop stop-color="#A166FF" offset="100%"></stop></linearGradient></defs><g id="Icon-Architecture/48/Arch_Amazon-API-Gateway_48" stroke="none" stroke-width="1" fill="none" fill-rule="evenodd"><g id="Icon-Architecture-BG/48/Networking-Content-Delivery" fill="url(#linearGradient-1)"><rect id="Rectangle" x="0" y="0" width="64" height="64"></rect></g><path d="M28,43.9999441 L31,43.9999441 L31,41.999933 L28,41.999933 L28,43.9999441 Z M33,43.9999441 L36,43.9999441 L36,41.999933 L33,41.999933 L33,43.9999441 Z M28,21.9998212 L31,21.9998212 L31,19.9998101 L28,19.9998101 L28,21.9998212 Z M33,21.9998212 L36,21.9998212 L36,19.9998101 L33,19.9998101 L33,21.9998212 Z M22,12.7407695 L12,18.5738021 L12,46.3819574 L22,51.3819854 L22,12.7407695 Z M24,19.9998101 L26,19.9998101 L26,21.9998212 L24,21.9998212 L24,41.999933 L26,41.999933 L26,43.9999441 L24,43.9999441 L24,53 C24,53.3469964 23.82,53.6679981 23.525,53.8509992 C23.365,53.9499997 23.183,54 23,54 C22.847,54 22.694,53.9649998 22.553,53.8949994 L10.553,47.8949659 C10.214,47.7249649 10,47.378963 10,46.9999609 L10,17.9997989 C10,17.6447969 10.188,17.3147951 10.496,17.1357941 L22.496,10.1357549 C22.805,9.95575394 23.188,9.95475394 23.498,10.1327549 C23.809,10.3107559 24,10.6417578 24,10.9997598 L24,19.9998101 Z M52,18.5738021 L42,12.7407695 L42,51.3819854 L52,46.3819574 L52,18.5738021 Z M54,17.9997989 L54,46.9999609 C54,47.378963 53.786,47.7249649 53.447,47.8949659 L41.447,53.8949994 C41.306,53.9649998 41.153,54 41,54 C40.817,54 40.635,53.9499997 40.475,53.8509992 C40.18,53.6679981 40,53.3469964 40,52.9999944 L40,43.9999441 L38,43.9999441 L38,41.999933 L40,41.999933 L40,21.9998212 L38,21.9998212 L38,19.9998101 L40,19.9998101 L40,10.9997598 C40,10.6417578 40.191,10.3107559 40.502,10.1327549 C40.812,9.95575394 41.195,9.95575394 41.504,10.1357549 L53.504,17.1357941 C53.812,17.3147951 54,17.6447969 54,17.9997989 L54,17.9997989 Z M34.939,27.3418511 L33.061,26.6578473 L29.061,37.6579087 L30.939,38.3419125 L34.939,27.3418511 Z M39.707,32.706881 C40.098,32.3158789 40.098,31.6838753 39.707,31.2928731 L36.707,28.2928564 L35.293,29.7068643 L37.586,31.9998771 L35.293,34.2928899 L36.707,35.7068978 L39.707,32.706881 Z M27.293,35.7068978 L24.293,32.706881 C23.902,32.3158789 23.902,31.6838753 24.293,31.2928731 L27.293,28.2928564 L28.707,29.7068643 L26.414,31.9998771 L28.707,34.2928899 L27.293,35.7068978 Z" id="Amazon-API-Gateway_Icon_48_Squid" fill="#FFFFFF"></path></g></svg>