<?xml version="1.0" encoding="UTF-8"?>
<svg width="80.00px" height="80.00px" viewBox="0 0 64 64" version="1.1" xmlns="http://www.w3.org/2000/svg" xmlns:xlink="http://www.w3.org/1999/xlink"><!-- Generator: Sketch 64 (93537) - https://sketch.com -->
<title>Icon-Architecture/48/Arch_AWS-AppSync_48</title><desc>Created with Sketch.</desc><defs><linearGradient x1="0%" y1="100%" x2="100%" y2="0%" id="linearGradient-1"><stop stop-color="#BD0816" offset="0%"></stop><stop stop-color="#FF5252" offset="100%"></stop></linearGradient></defs><g id="Icon-Architecture/48/Arch_AWS-AppSync_48" stroke="none" stroke-width="1" fill="none" fill-rule="evenodd"><g id="Icon-Architecture-BG/48/Mobile" fill="url(#linearGradient-1)"><rect id="Rectangle" x="0" y="0" width="64" height="64"></rect></g><path d="M53.3615509,22.9681157 L49.9373255,21.8400732 C54.0191636,29.3972598 53.2294232,39.010057 47.6921633,45.218779 C43.7565735,49.6302131 38.0075059,52 32.2049821,52 C29.0480379,52 25.8739474,51.2978409 22.9661295,49.8406613 L23.8789201,48.0613264 C31.3204325,51.7925439 40.6994816,50.0411357 46.1792508,43.8982412 C51.1869913,38.2849581 51.808294,29.1798299 47.9130486,22.3397632 L46.5685736,26.3273086 L44.6552436,25.6959639 L46.6724603,19.7116535 C46.8489668,19.1890238 47.4147961,18.9057664 47.9483499,19.0813062 L54,21.0760763 L53.3615509,22.9681157 Z M16.8166444,40.1899635 L17.3844909,36.818802 L19.3744752,37.1469417 L18.3658668,43.1312521 C18.3174536,43.418499 18.143973,43.6708374 17.8908123,43.8214425 C17.7324608,43.9161941 17.5519199,43.9640686 17.3703704,43.9640686 C17.2634579,43.9640686 17.1565454,43.947113 17.0516501,43.913202 L11,41.9184318 L11.6384491,40.0263924 L15.0505712,41.1504453 C11.0534562,33.8126835 11.8643774,24.952912 17.3774306,18.7731142 C23.4432013,11.9729429 33.8116952,10.0290394 42.0338705,14.1502344 L41.1210799,15.9295694 C33.7108343,12.2133127 24.3590177,13.9637234 18.8903432,20.0926546 C13.951188,25.6301365 13.2280159,33.5842823 16.8166444,40.1899635 L16.8166444,40.1899635 Z M23.8052917,36.9823732 C23.8052917,36.0847266 24.5446016,35.3546408 25.4513405,35.3546408 C26.359088,35.3546408 27.0973893,36.0847266 27.0973893,36.9823732 C27.0973893,37.8800197 26.359088,38.611103 25.4513405,38.611103 C24.5446016,38.611103 23.8052917,37.8800197 23.8052917,36.9823732 L23.8052917,36.9823732 Z M31.6552905,28.1684814 C31.9266062,28.2333115 32.2069993,28.276199 32.4994957,28.276199 C32.7617339,28.276199 33.0179204,28.2462775 33.2640208,28.1944134 L36.2283208,34.2166244 C35.676612,34.6744242 35.267117,35.2838264 35.0613609,35.9849881 L28.9562545,35.9849881 C28.7575587,35.3087611 28.3712617,34.7163143 27.847794,34.2654963 L31.6552905,28.1684814 Z M32.4994957,23.0259641 C33.4072432,23.0259641 34.1455445,23.7560499 34.1455445,24.6536965 C34.1455445,25.551343 33.4072432,26.2814289 32.4994957,26.2814289 C31.5927568,26.2814289 30.8544555,25.551343 30.8544555,24.6536965 C30.8544555,23.7560499 31.5927568,23.0259641 32.4994957,23.0259641 L32.4994957,23.0259641 Z M40.2133324,36.9823732 C40.2133324,37.8800197 39.4740225,38.611103 38.566275,38.611103 C37.659536,38.611103 36.9202261,37.8800197 36.9202261,36.9823732 C36.9202261,36.0847266 37.659536,35.3546408 38.566275,35.3546408 C39.4740225,35.3546408 40.2133324,36.0847266 40.2133324,36.9823732 L40.2133324,36.9823732 Z M28.9562545,37.9797582 L35.0613609,37.9797582 C35.5031314,39.4907966 36.8990453,40.6058731 38.566275,40.6058731 C40.5865175,40.6058731 42.2305491,38.9801355 42.2305491,36.9823732 C42.2305491,34.9846109 40.5865175,33.3598707 38.566275,33.3598707 C38.3978374,33.3598707 38.23646,33.3868001 38.0750827,33.4087425 L35.0442146,27.2498898 C35.7320855,26.5916157 36.1627612,25.673024 36.1627612,24.6536965 C36.1627612,22.6559342 34.5197382,21.031194 32.4994957,21.031194 C30.4792532,21.031194 28.8372388,22.6559342 28.8372388,24.6536965 C28.8372388,25.6431025 29.2416907,26.5387542 29.8932517,27.1930388 L26.0080923,33.4157242 C25.8255342,33.3877974 25.6429761,33.3598707 25.4513405,33.3598707 C23.431098,33.3598707 21.788075,34.9846109 21.788075,36.9823732 C21.788075,38.9801355 23.431098,40.6058731 25.4513405,40.6058731 C27.1195787,40.6058731 28.5144841,39.4907966 28.9562545,37.9797582 L28.9562545,37.9797582 Z" id="AWS-AppSync-Icon_48_Squid" fill="#FFFFFF"></path></g></svg>