<?xml version="1.0" encoding="UTF-8"?>
<svg width="80.00px" height="80.00px" viewBox="0 0 64 64" version="1.1" xmlns="http://www.w3.org/2000/svg" xmlns:xlink="http://www.w3.org/1999/xlink"><title>Icon-Architecture/48/Arch_Standard-Storage-Class_48</title><defs><linearGradient x1="0%" y1="100%" x2="100%" y2="0%" id="linearGradient-1"><stop stop-color="#1B660F" offset="0%"></stop><stop stop-color="#6CAE3E" offset="100%"></stop></linearGradient></defs><g id="Icon-Architecture/48/Arch_Standard-Storage-Class_48" stroke="none" stroke-width="1" fill="none" fill-rule="evenodd"><g id="Rectangle" fill="url(#linearGradient-1)"><rect x="0" y="0" width="64" height="64"></rect></g><g id="Icon-Service/48/Standard-Storage-Class_48" transform="translate(8.000000, 8.000000)" fill="#FFFFFF"><path d="M39.759,25.948 L39.993,24.131 C42.166,25.385 42.842,26.121 43.037,26.424 C42.713,26.485 41.832,26.509 39.759,25.948 L39.759,25.948 Z M22.5,13 C12.125,13 5.382,10.488 5,8.696 L5,8.511 C5.349,7.392 11.14,4 22.5,4 C33.84,4 39.632,7.381 40,8.505 L40,8.616 C39.724,10.446 32.961,13 22.5,13 L22.5,13 Z M37.818,25.362 C33.053,23.797 26.912,20.979 24.594,19.888 C24.535,18.786 23.628,17.906 22.512,17.906 C21.358,17.906 20.418,18.845 20.418,20 C20.418,21.154 21.358,22.094 22.512,22.094 C22.969,22.094 23.389,21.942 23.733,21.693 C26.132,22.822 32.619,25.798 37.558,27.38 L35.837,40.724 C35.583,42.352 30.919,44 22.497,44 C14.072,44 9.405,42.352 9.155,40.751 L5.435,11.814 C8.945,13.915 15.749,15 22.5,15 C29.25,15 36.054,13.915 39.565,11.815 L37.818,25.362 Z M42,8.5 C42,5.431 33.661,2 22.5,2 C11.339,2 3,5.431 3,8.5 L3,9.043 L7.174,41.033 C7.875,45.516 18.123,46 22.497,46 C26.869,46 37.113,45.516 37.818,41.007 L39.501,27.947 C40.778,28.279 41.812,28.456 42.616,28.455 C43.606,28.455 44.273,28.203 44.697,27.697 C45.047,27.281 45.185,26.756 45.085,26.221 C44.857,25 43.403,23.712 40.37,22.044 L40.27,21.989 L42,9.044 L42,8.5 Z" id="Standard-Storage-Class_48_Squid"></path></g></g></svg>