<?xml version="1.0" encoding="UTF-8"?>
<svg width="80.00px" height="80.00px" viewBox="0 0 64 64" version="1.1" xmlns="http://www.w3.org/2000/svg" xmlns:xlink="http://www.w3.org/1999/xlink"><title>Icon-Architecture/48/Arch_Infrequent-Access-Storage-Class_48</title><defs><linearGradient x1="0%" y1="100%" x2="100%" y2="0%" id="linearGradient-1"><stop stop-color="#1B660F" offset="0%"></stop><stop stop-color="#6CAE3E" offset="100%"></stop></linearGradient></defs><g id="Icon-Architecture/48/Arch_Infrequent-Access-Storage-Class_48" stroke="none" stroke-width="1" fill="none" fill-rule="evenodd"><g id="Rectangle" fill="url(#linearGradient-1)"><rect x="0" y="0" width="64" height="64"></rect></g><g id="Icon-Service/48/Infrequent-Access-Storage-Class_48" transform="translate(8.000000, 8.000000)" fill="#FFFFFF"><path d="M5,8.511 L5,8.697 C5.382,10.489 12.125,13 22.5,13 C32.961,13 39.723,10.446 40,8.617 L40,8.506 C39.632,7.381 33.84,4 22.5,4 C11.14,4 5.349,7.393 5,8.511 L5,8.511 Z M39.993,24.131 L39.759,25.948 C41.832,26.509 42.713,26.486 43.037,26.424 C42.842,26.121 42.166,25.385 39.993,24.131 L39.993,24.131 Z M41.938,9.045 L40.27,21.989 L40.37,22.045 C43.402,23.713 44.856,25.001 45.085,26.221 C45.185,26.757 45.047,27.281 44.697,27.697 C44.272,28.203 43.605,28.456 42.616,28.456 C41.812,28.456 40.777,28.279 39.501,27.947 L39.349,29.128 L37.364,28.872 L37.557,27.381 C32.618,25.799 26.132,22.823 23.732,21.694 C23.389,21.943 22.969,22.094 22.512,22.094 C21.357,22.094 20.418,21.155 20.418,20 C20.418,18.846 21.357,17.907 22.512,17.907 C23.628,17.907 24.535,18.787 24.594,19.889 C26.912,20.979 33.052,23.797 37.816,25.362 L39.563,11.816 C36.054,13.916 29.25,15 22.5,15 C15.749,15 8.944,13.915 5.435,11.815 L9.154,40.752 C9.404,42.352 14.071,44 22.497,44 C27.947,44 32.329,43.31 34.519,42.108 L35.481,43.861 C32.093,45.722 25.892,46 22.497,46 C18.123,46 7.875,45.516 7.174,41.033 L3.062,9.043 L3,8.5 C3,5.432 11.339,2 22.5,2 C33.661,2 42,5.432 42,8.5 L41.938,9.045 Z M43.793,40.793 L45.207,42.207 L41.707,45.707 C41.512,45.903 41.256,46 41,46 C40.744,46 40.488,45.903 40.293,45.707 L36.793,42.207 L38.207,40.793 L40,42.586 L40,34.414 L38.207,36.207 L36.793,34.793 L40.293,31.293 C40.684,30.903 41.316,30.903 41.707,31.293 L45.207,34.793 L43.793,36.207 L42,34.414 L42,42.586 L43.793,40.793 Z" id="Infrequent-Access-Storage-Class_48_Squid"></path></g></g></svg>