<?xml version="1.0" encoding="UTF-8"?>
<svg width="80.00px" height="80.00px" viewBox="0 0 64 64" version="1.1" xmlns="http://www.w3.org/2000/svg" xmlns:xlink="http://www.w3.org/1999/xlink"><!-- Generator: Sketch 64 (93537) - https://sketch.com -->
<title>Icon-Architecture/48/Arch_AWS-Compute-Optimizer_48</title><desc>Created with Sketch.</desc><defs><linearGradient x1="0%" y1="100%" x2="100%" y2="0%" id="linearGradient-1"><stop stop-color="#B0084D" offset="0%"></stop><stop stop-color="#FF4F8B" offset="100%"></stop></linearGradient></defs><g id="Icon-Architecture/48/Arch_AWS-Compute-Optimizer_48" stroke="none" stroke-width="1" fill="none" fill-rule="evenodd"><g id="Icon-Architecture-BG/48/Management-Governance" fill="url(#linearGradient-1)"><rect id="Rectangle" x="0" y="0" width="64" height="64"></rect></g><path d="M35,36.5110037 C37.847,36.1100037 40,33.6400037 40,30.6460037 C40,27.6520037 37.847,25.1820037 35,24.7820037 L35,22.7760037 C38.963,23.1880037 42,26.5460037 42,30.6460037 C42,34.7460037 38.963,38.1040037 35,38.5160037 L35,36.5110037 Z M36.472,13.0000037 L35,13.0000037 L35,11.0000037 L37.529,11.0000037 C37.805,11.0000037 38.067,11.1130037 38.256,11.3130037 C38.445,11.5130037 38.543,11.7820037 38.527,12.0560037 L38.4,14.3290037 C39.703,14.6900037 40.951,15.2050037 42.13,15.8670037 L43.643,14.1670037 C43.826,13.9620037 44.085,13.8410037 44.36,13.8330037 C44.639,13.8160037 44.901,13.9310037 45.096,14.1240037 L50.341,19.3580037 C50.536,19.5530037 50.642,19.8190037 50.635,20.0940037 C50.627,20.3690037 50.507,20.6280037 50.302,20.8120037 L48.607,22.3270037 C49.271,23.5020037 49.79,24.7510037 50.156,26.0540037 L52.425,25.9220037 C52.694,25.9130037 52.968,26.0040037 53.168,26.1930037 C53.368,26.3820037 53.482,26.6440037 53.482,26.9200037 L53.491,34.3290037 C53.491,34.6040037 53.379,34.8680037 53.179,35.0570037 C52.979,35.2450037 52.707,35.3440037 52.436,35.3290037 L50.174,35.2020037 C49.736,36.7790037 49.073,38.2790037 48.197,39.6700037 L46.504,38.6040037 C47.41,37.1650037 48.058,35.5960037 48.43,33.9390037 C48.537,33.4610037 49.011,33.1410037 49.461,33.1590037 L51.49,33.2730037 L51.483,27.9800037 L49.448,28.0990037 C48.957,28.1200037 48.523,27.7990037 48.416,27.3220037 C48.038,25.6640037 47.387,24.0980037 46.48,22.6660037 C46.219,22.2530037 46.294,21.7120037 46.658,21.3860037 L48.179,20.0260037 L44.433,16.2880037 L43.075,17.8130037 C42.75,18.1780037 42.208,18.2540037 41.796,17.9940037 C40.36,17.0910037 38.793,16.4450037 37.137,16.0730037 C36.659,15.9660037 36.33,15.5290037 36.357,15.0410037 L36.472,13.0000037 Z M26.045,51.8600037 L24.035,50.6540037 L27.626,47.7810037 L26.376,46.2190037 L22.205,49.5560037 L17.001,46.4330037 L17.001,40.4990037 L20.601,37.8000037 L19.401,36.2000037 L15.85,38.8620037 L12.001,37.3230037 L12,32.5640037 L16.478,29.8550037 L15.442,28.1440037 L12,30.2260037 L12.001,27.5750037 L15.988,25.1750037 L20.001,27.5680037 L20.001,30.5000037 L16.401,33.2000037 L17.601,34.8000037 L20.907,32.3200037 L23.001,34.4140037 L23.001,36.0000037 L25.001,36.0000037 L25.001,34.0000037 C25.001,33.7350037 24.896,33.4800037 24.708,33.2930037 L22.001,30.5860037 L22.001,27.5660037 L26.516,24.8570037 C26.816,24.6770037 27.001,24.3510037 27.001,24.0000037 L27.001,19.0110037 L25.001,19.0110037 L25.001,23.4330037 L20.999,25.8350037 L17.001,23.4510037 L17.001,17.5350037 L21.001,14.8680037 L21.001,20.0000037 L23.001,20.0000037 L23.001,13.5350037 L25.104,12.1320037 L31.001,14.6590037 L31.001,30.0000037 L28.6,28.2000037 L27.4,29.8000037 L31.001,32.5000037 L31.001,34.5190037 L21.376,42.2190037 L22.626,43.7810037 L31.001,37.0800037 L31.001,49.3820037 L26.045,51.8600037 Z M25.395,10.0810037 C25.085,9.94800367 24.729,9.98000367 24.446,10.1680037 L15.446,16.1680037 C15.168,16.3530037 15.001,16.6650037 15.001,17 L15.001,23.4340037 L10.485,26.1530037 C10.185,26.3340037 10.001,26.6590037 10.001,27.0100037 L10,31.7580037 L10.001,38 C10.001,38.4090037 10.25,38.7770037 10.63,38.9290037 L15.001,40.6770037 L15.001,47 C15.001,47.3510037 15.186,47.6770037 15.486,47.8570037 L25.486,53.8570037 C25.645,53.9520037 25.822,54 26.001,54 C26.154,54 26.307,53.9650037 26.448,53.8940037 L32.448,50.8940037 C32.787,50.7250037 33.001,50.3790037 33.001,50 L33.001,14 C33.001,13.6000037 32.763,13.2380037 32.395,13.0810037 L25.395,10.0810037 Z M38.449,50.0000037 C38.274,49.9990037 38.141,49.9730037 38.061,49.9220037 C37.563,49.6090037 36.971,49.0030037 36.971,47.9000037 C36.971,46.8120037 37.503,46.1240037 38.553,45.8540037 C39.016,45.7350037 39.33,45.3050037 39.302,44.8280037 L39.272,44.3480037 C39.272,43.1180037 40.144,41.7480037 41.214,41.2930037 C41.708,41.0830037 42.165,41.0000037 42.58,41.0000037 C43.761,41.0000037 44.597,41.6790037 44.962,42.0460037 C45.365,42.4520037 45.695,42.9990037 45.917,43.6290037 C46.04,43.9780037 46.347,44.2310037 46.713,44.2860037 C47.077,44.3410037 47.446,44.1880037 47.665,43.8900037 C47.915,43.5510037 48.307,43.4920037 48.581,43.5810037 C48.963,43.7070037 49.188,44.1270037 49.2,44.7390037 C49.152,45.2560037 49.51,45.7270037 50.026,45.8160037 C50.764,45.9430037 52.001,46.3860037 52.001,47.9260037 C52.001,49.6830037 50.468,49.9580037 50.077,50.0000037 L38.449,50.0000037 Z M49.205,41.6820037 C48.552,41.4670037 47.858,41.5050037 47.247,41.7630037 C46.999,41.3440037 46.71,40.9680037 46.38,40.6360037 C44.758,39.0030037 42.533,38.5600037 40.433,39.4530037 C38.694,40.1900037 37.368,42.1770037 37.279,44.1880037 C35.819,44.8470037 34.971,46.1860037 34.971,47.9000037 C34.971,50.0210037 36.237,51.1370037 36.991,51.6130037 C37.396,51.8690037 37.885,51.9990037 38.447,52.0000037 L50.124,52.0000037 C50.148,52.0000037 50.173,51.9990037 50.197,51.9970037 C51.513,51.9010037 54.001,50.9270037 54.001,47.9260037 C54.001,45.7500037 52.631,44.5350037 51.136,44.0380037 C50.895,42.7030037 50.025,41.9510037 49.205,41.6820037 Z" id="AWS-Compute-Optimizer_Icon_48_Squid" fill="#FFFFFF"></path></g></svg>