<?xml version="1.0" encoding="UTF-8"?>
<svg width="80.00px" height="80.00px" viewBox="0 0 64 64" version="1.1" xmlns="http://www.w3.org/2000/svg" xmlns:xlink="http://www.w3.org/1999/xlink"><!-- Generator: Sketch 64 (93537) - https://sketch.com -->
<title>Icon-Architecture/48/Arch_AWS-Managed-Services_48</title><desc>Created with Sketch.</desc><defs><linearGradient x1="0%" y1="100%" x2="100%" y2="0%" id="linearGradient-1"><stop stop-color="#B0084D" offset="0%"></stop><stop stop-color="#FF4F8B" offset="100%"></stop></linearGradient></defs><g id="Icon-Architecture/48/Arch_AWS-Managed-Services_48" stroke="none" stroke-width="1" fill="none" fill-rule="evenodd"><g id="Icon-Architecture-BG/48/Management-Governance" fill="url(#linearGradient-1)"><rect id="Rectangle" x="0" y="0" width="64" height="64"></rect></g><path d="M36.442,46.035 L36.967,47.965 C35.452,48.377 33.438,48.633 31.713,48.633 C24.609,48.633 17.976,44.638 14.814,38.455 L16.595,37.545 C19.419,43.066 25.352,46.633 31.713,46.633 C33.25,46.633 35.106,46.398 36.442,46.035 L36.442,46.035 Z M45.998,32.293 L48.998,29.293 C49.388,28.902 50.021,28.902 50.412,29.293 L53.412,32.293 L51.998,33.707 L50.575,32.285 C50.422,33.717 50.13,35.033 49.642,36.347 L47.767,35.652 C48.135,34.66 48.376,33.66 48.525,32.594 L47.412,33.707 L45.998,32.293 Z M17.41,26.723 L14.41,29.709 C14.215,29.903 13.96,30 13.705,30 C13.45,30 13.194,29.903 13,29.709 L10,26.723 L11.41,25.305 L12.861,26.75 C13.999,17.759 21.858,11 31.705,11 C38.69,11 45.32,15.139 48.595,21.545 L46.814,22.455 C43.878,16.711 37.947,13 31.705,13 C23.135,13 16.254,18.686 14.947,26.353 L16,25.305 L17.41,26.723 Z M31.727,32.948 C29.877,32.948 28.371,31.442 28.371,29.591 C28.371,27.741 29.877,26.235 31.727,26.235 C33.579,26.235 35.085,27.741 35.085,29.591 C35.085,31.442 33.579,32.948 31.727,32.948 L31.727,32.948 Z M31.727,24.235 C28.774,24.235 26.371,26.638 26.371,29.591 C26.371,32.545 28.774,34.948 31.727,34.948 C34.681,34.948 37.085,32.545 37.085,29.591 C37.085,26.638 34.681,24.235 31.727,24.235 L31.727,24.235 Z M36.163,36.63 C35.363,37.136 34.49,37.497 33.568,37.705 C33.091,37.813 32.762,38.25 32.791,38.738 L32.833,39.483 L30.622,39.483 L30.665,38.737 C30.693,38.249 30.364,37.812 29.887,37.704 C28.967,37.496 28.095,37.135 27.295,36.629 C26.881,36.368 26.339,36.441 26.014,36.808 L25.515,37.368 L23.952,35.804 L24.51,35.306 C24.875,34.98 24.951,34.439 24.69,34.026 C24.185,33.225 23.825,32.353 23.618,31.433 C23.51,30.956 23.044,30.635 22.586,30.654 L21.837,30.697 L21.837,28.485 L22.588,28.528 C23.042,28.543 23.511,28.228 23.621,27.751 C23.83,26.832 24.191,25.961 24.696,25.163 C24.957,24.75 24.88,24.208 24.516,23.883 L23.952,23.379 L25.515,21.815 L26.018,22.378 C26.342,22.743 26.883,22.818 27.297,22.559 C28.096,22.056 28.968,21.695 29.887,21.487 C30.364,21.379 30.693,20.943 30.665,20.454 L30.622,19.7 L32.834,19.7 L32.791,20.455 C32.762,20.943 33.091,21.38 33.568,21.488 C34.485,21.696 35.356,22.056 36.156,22.56 C36.566,22.821 37.11,22.745 37.435,22.38 L37.94,21.815 L39.504,23.379 L38.941,23.881 C38.577,24.206 38.501,24.747 38.761,25.16 C39.265,25.959 39.628,26.83 39.836,27.751 C39.944,28.228 40.395,28.543 40.868,28.528 L41.619,28.485 L41.619,30.697 L40.869,30.654 C40.395,30.622 39.944,30.955 39.837,31.433 C39.63,32.351 39.268,33.223 38.763,34.024 C38.503,34.437 38.579,34.978 38.943,35.304 L39.504,35.804 L37.94,37.367 L37.443,36.81 C37.117,36.444 36.575,36.37 36.163,36.63 L36.163,36.63 Z M38.605,39.53 L41.667,36.469 C41.861,36.275 41.967,36.009 41.96,35.734 C41.952,35.458 41.831,35.199 41.626,35.016 L40.88,34.351 C41.157,33.82 41.386,33.267 41.565,32.697 L42.562,32.754 C42.841,32.768 43.106,32.671 43.305,32.483 C43.505,32.294 43.619,32.031 43.619,31.756 L43.619,27.427 C43.619,27.152 43.505,26.889 43.305,26.7 C43.106,26.511 42.842,26.415 42.562,26.428 L41.563,26.485 C41.383,25.915 41.155,25.363 40.879,24.833 L41.626,24.166 C41.831,23.983 41.952,23.723 41.96,23.449 C41.967,23.174 41.861,22.908 41.667,22.713 L38.605,19.652 C38.411,19.457 38.141,19.346 37.87,19.36 C37.594,19.368 37.335,19.488 37.152,19.694 L36.483,20.444 C35.953,20.168 35.402,19.939 34.834,19.76 L34.89,18.757 C34.906,18.482 34.808,18.213 34.619,18.014 C34.43,17.813 34.168,17.7 33.892,17.7 L29.563,17.7 C29.288,17.7 29.025,17.813 28.837,18.014 C28.647,18.213 28.549,18.482 28.565,18.757 L28.622,19.759 C28.052,19.938 27.501,20.166 26.971,20.442 L26.303,19.694 C26.121,19.488 25.861,19.368 25.586,19.36 C25.301,19.348 25.045,19.457 24.85,19.652 L21.789,22.713 C21.594,22.908 21.488,23.174 21.496,23.449 C21.504,23.723 21.625,23.983 21.83,24.166 L22.579,24.835 C22.302,25.365 22.073,25.916 21.893,26.485 L20.893,26.428 C20.621,26.414 20.349,26.511 20.15,26.7 C19.95,26.889 19.837,27.152 19.837,27.427 L19.837,31.756 C19.837,32.031 19.95,32.294 20.15,32.483 C20.349,32.671 20.622,32.769 20.893,32.754 L21.888,32.697 C22.068,33.268 22.296,33.822 22.574,34.353 L21.83,35.015 C21.625,35.199 21.504,35.458 21.496,35.734 C21.488,36.009 21.594,36.275 21.789,36.469 L24.85,39.53 C25.045,39.725 25.326,39.83 25.586,39.823 C25.861,39.815 26.121,39.694 26.303,39.489 L26.966,38.745 C27.498,39.023 28.051,39.252 28.622,39.432 L28.565,40.426 C28.549,40.7 28.647,40.969 28.836,41.169 C29.025,41.369 29.288,41.483 29.563,41.483 L33.892,41.483 C34.168,41.483 34.43,41.369 34.62,41.169 C34.808,40.969 34.906,40.7 34.89,40.426 L34.834,39.434 C35.405,39.254 35.959,39.025 36.491,38.747 L37.152,39.489 C37.335,39.694 37.594,39.815 37.87,39.823 C38.117,39.833 38.411,39.725 38.605,39.53 L38.605,39.53 Z M46.512,45.446 C46.313,45.653 46.045,45.77 45.756,45.776 C45.486,45.768 45.196,45.674 44.989,45.475 C44.781,45.276 44.664,45.008 44.658,44.72 C44.653,44.432 44.759,44.159 44.959,43.952 C45.158,43.744 45.426,43.627 45.714,43.621 L45.736,43.621 C46.015,43.621 46.28,43.727 46.482,43.922 C46.911,44.333 46.923,45.017 46.512,45.446 L46.512,45.446 Z M45.675,41.621 C44.853,41.638 44.087,41.973 43.517,42.566 C42.948,43.159 42.642,43.937 42.659,44.759 C42.674,45.581 43.01,46.347 43.602,46.917 C44.18,47.472 44.935,47.776 45.734,47.776 C45.755,47.776 45.775,47.776 45.796,47.776 C46.618,47.76 47.384,47.424 47.954,46.831 C49.13,45.608 49.091,43.656 47.869,42.48 C47.276,41.91 46.489,41.594 45.675,41.621 L45.675,41.621 Z M50.646,47.488 L49.072,47.172 C48.799,47.117 48.51,47.181 48.285,47.346 L47.419,47.98 C47.194,48.144 47.048,48.394 47.016,48.67 L46.83,50.255 L44.567,50.253 L44.384,48.682 C44.352,48.407 44.209,48.158 43.986,47.993 L43.109,47.345 C42.881,47.176 42.594,47.11 42.318,47.168 L40.758,47.48 L40.061,45.327 L41.524,44.656 C41.778,44.539 41.971,44.322 42.058,44.057 L42.387,43.048 C42.473,42.782 42.445,42.492 42.308,42.248 L41.521,40.848 L43.353,39.519 L44.432,40.691 C44.622,40.896 44.888,41.013 45.168,41.013 L45.173,41.013 L46.264,41.007 C46.542,41.005 46.806,40.889 46.994,40.684 L48.064,39.523 L49.894,40.854 L49.11,42.248 C48.974,42.49 48.945,42.777 49.029,43.042 L49.354,44.062 C49.44,44.33 49.634,44.55 49.89,44.667 L51.346,45.336 L50.646,47.488 Z M52.99,43.89 L51.126,43.034 L51.067,42.849 L52.074,41.059 C52.322,40.617 52.2,40.059 51.79,39.761 L48.52,37.382 C48.109,37.083 47.542,37.138 47.197,37.513 L45.818,39.009 L45.604,39.011 L44.221,37.51 C43.878,37.136 43.306,37.08 42.899,37.378 L39.627,39.752 C39.215,40.05 39.093,40.609 39.341,41.051 L40.349,42.845 L40.292,43.02 L38.419,43.88 C37.958,44.092 37.728,44.615 37.884,45.097 L39.13,48.943 C39.287,49.426 39.778,49.714 40.278,49.616 L42.276,49.216 L42.448,49.343 L42.683,51.367 C42.742,51.871 43.169,52.251 43.675,52.252 L47.718,52.256 L47.719,52.256 C48.226,52.256 48.653,51.876 48.713,51.372 L48.952,49.336 L49.111,49.22 L51.126,49.624 C51.617,49.722 52.115,49.435 52.273,48.953 L53.524,45.109 C53.681,44.626 53.452,44.102 52.99,43.89 L52.99,43.89 Z" id="AWS-Managed-Services_Icon_48_Squid" fill="#FFFFFF"></path></g></svg>