<?xml version="1.0" encoding="UTF-8"?>
<svg width="80.00px" height="80.00px" viewBox="0 0 64 64" version="1.1" xmlns="http://www.w3.org/2000/svg" xmlns:xlink="http://www.w3.org/1999/xlink"><!-- Generator: Sketch 64 (93537) - https://sketch.com -->
<title>Icon-Architecture/48/Arch_Amazon-Pinpoint_48</title><desc>Created with Sketch.</desc><defs><linearGradient x1="0%" y1="100%" x2="100%" y2="0%" id="linearGradient-1"><stop stop-color="#BD0816" offset="0%"></stop><stop stop-color="#FF5252" offset="100%"></stop></linearGradient></defs><g id="Icon-Architecture/48/Arch_Amazon-Pinpoint_48" stroke="none" stroke-width="1" fill="none" fill-rule="evenodd"><g id="Icon-Architecture-BG/48/Mobile" fill="url(#linearGradient-1)"><rect id="Rectangle" x="0" y="0" width="64" height="64"></rect></g><path d="M31.293,31.293 L35.472,27.114 C34.491,26.416 33.296,26 32.003,26 C28.696,26 26.007,28.69 26.007,31.997 C26.007,35.303 28.696,37.994 32.003,37.994 C35.31,37.994 38,35.303 38,31.997 C38,30.704 37.585,29.508 36.886,28.528 L32.707,32.707 L31.293,31.293 Z M41.862,23.552 L38.313,27.102 C39.366,28.456 40,30.152 40,31.997 C40,36.406 36.412,39.994 32.003,39.994 C27.594,39.994 24.007,36.406 24.007,31.997 C24.007,27.587 27.594,24 32.003,24 C33.848,24 35.544,24.634 36.898,25.688 L40.448,22.138 C38.175,20.187 35.227,19 32.003,19 C24.837,19 19.007,24.83 19.007,31.997 C19.007,39.163 24.837,44.994 32.003,44.994 C39.17,44.994 45,39.163 45,31.997 C45,28.772 43.814,25.826 41.862,23.552 L41.862,23.552 Z M44.027,17.014 C44.027,18.66 45.367,20 47.014,20 C48.66,20 50,18.66 50,17.014 C50,15.367 48.66,14.027 47.014,14.027 C45.367,14.027 44.027,15.367 44.027,17.014 L44.027,17.014 Z M41.861,20.724 L42.848,19.739 C42.332,18.954 42.027,18.02 42.027,17.014 C42.027,14.264 44.265,12.027 47.014,12.027 C49.763,12.027 52,14.264 52,17.014 C52,19.763 49.763,22 47.014,22 C45.993,22 45.045,21.689 44.253,21.161 L43.275,22.138 C45.587,24.777 47,28.221 47,31.997 C47,40.266 40.272,46.994 32.003,46.994 C23.734,46.994 17.007,40.266 17.007,31.997 C17.007,23.728 23.734,17 32.003,17 C35.778,17 39.223,18.413 41.861,20.724 L41.861,20.724 Z M54,32 C54,44.131 44.131,54 32,54 C19.869,54 10,44.131 10,32 C10,19.869 19.869,10 32,10 C35.081,10 38.064,10.627 40.863,11.863 L40.055,13.693 C37.512,12.569 34.801,12 32,12 C20.972,12 12,20.972 12,32 C12,43.028 20.972,52 32,52 C43.028,52 52,43.028 52,32 C52,29.191 51.435,26.495 50.318,23.987 L52.147,23.174 C53.376,25.94 54,28.909 54,32 L54,32 Z" id="Amazon-Pinpoint-Icon_48_Squid" fill="#FFFFFF"></path></g></svg>