<?xml version="1.0" encoding="UTF-8"?>
<svg width="80.00px" height="80.00px" viewBox="0 0 64 64" version="1.1" xmlns="http://www.w3.org/2000/svg" xmlns:xlink="http://www.w3.org/1999/xlink"><!-- Generator: Sketch 64 (93537) - https://sketch.com -->
<title>Icon-Architecture/48/Arch_Amazon-Pinpoint-Journey_48</title><desc>Created with Sketch.</desc><defs><linearGradient x1="0%" y1="100%" x2="100%" y2="0%" id="linearGradient-1"><stop stop-color="#BD0816" offset="0%"></stop><stop stop-color="#FF5252" offset="100%"></stop></linearGradient></defs><g id="Icon-Architecture/48/Arch_Amazon-Pinpoint-Journey_48" stroke="none" stroke-width="1" fill="none" fill-rule="evenodd"><g id="Icon-Architecture-BG/48/Mobile" fill="url(#linearGradient-1)"><rect id="Rectangle" x="0" y="0" width="64" height="64"></rect></g><path d="M51.177,29 C51.177,27.897 50.28,27 49.177,27 C48.074,27 47.177,27.897 47.177,29 C47.177,30.103 48.074,31 49.177,31 C50.28,31 51.177,30.103 51.177,29 L51.177,29 Z M46.177,45 C46.177,43.897 45.28,43 44.177,43 C43.074,43 42.177,43.897 42.177,45 C42.177,46.103 43.074,47 44.177,47 C45.28,47 46.177,46.103 46.177,45 L46.177,45 Z M37.177,28.5 C37.177,27.122 36.056,26 34.677,26 C33.298,26 32.177,27.122 32.177,28.5 C32.177,29.878 33.298,31 34.677,31 C36.056,31 37.177,29.878 37.177,28.5 L37.177,28.5 Z M26.391,37.966 L22.739,41.61 L21.326,40.194 L24.911,36.617 C24.25,36.235 23.493,36 22.677,36 C20.196,36 18.177,38.019 18.177,40.5 C18.177,42.981 20.196,45 22.677,45 C25.158,45 27.177,42.981 27.177,40.5 C27.177,39.56 26.886,38.688 26.391,37.966 L26.391,37.966 Z M29.677,18 C31.056,18 32.177,16.878 32.177,15.5 C32.177,14.122 31.056,13 29.677,13 C28.298,13 27.177,14.122 27.177,15.5 C27.177,16.878 28.298,18 29.677,18 L29.677,18 Z M53.177,29 C53.177,31.206 51.383,33 49.177,33 C49.128,33 49.083,32.987 49.034,32.985 L46.366,41.659 C47.454,42.375 48.177,43.603 48.177,45 C48.177,47.206 46.383,49 44.177,49 C41.971,49 40.177,47.206 40.177,45 C40.177,42.794 41.971,41 44.177,41 C44.277,41 44.369,41.022 44.467,41.029 L47.118,32.412 C46.238,31.878 45.584,31.021 45.32,30 L38.901,30 C38.28,31.742 36.63,33 34.677,33 C33.74,33 32.871,32.711 32.151,32.22 L27.82,36.541 C28.667,37.638 29.177,39.009 29.177,40.5 C29.177,44.084 26.261,47 22.677,47 C19.093,47 16.177,44.084 16.177,40.5 C16.177,36.916 19.093,34 22.677,34 C24.05,34 25.323,34.431 26.372,35.16 L30.799,30.744 C30.414,30.081 30.177,29.321 30.177,28.5 C30.177,27.047 30.881,25.766 31.952,24.943 L29.828,19.985 C29.777,19.986 29.729,20 29.677,20 C27.196,20 25.177,17.981 25.177,15.5 C25.177,13.019 27.196,11 29.677,11 C32.158,11 34.177,13.019 34.177,15.5 C34.177,17.219 33.198,18.698 31.777,19.456 L33.765,24.094 C34.06,24.033 34.365,24 34.677,24 C36.988,24 38.874,25.756 39.126,28 L45.32,28 C45.766,26.28 47.319,25 49.177,25 C51.383,25 53.177,26.794 53.177,29 L53.177,29 Z M32.943,35.147 C33.777,36.773 34.217,38.604 34.217,40.442 C34.217,46.842 29.01,52.05 22.609,52.05 C16.207,52.05 11,46.842 11,40.442 C11,34.041 16.207,28.833 22.609,28.833 C24.449,28.833 26.281,29.275 27.906,30.11 L26.992,31.889 C25.629,31.188 24.155,30.833 22.609,30.833 C17.311,30.833 13,35.144 13,40.442 C13,45.74 17.311,50.05 22.609,50.05 C27.906,50.05 32.217,45.74 32.217,40.442 C32.217,38.898 31.863,37.424 31.163,36.061 L32.943,35.147 Z" id="Amazon-Pinpoint-Journey_Icon_48_Squid" fill="#FFFFFF"></path></g></svg>