<?xml version="1.0" encoding="UTF-8"?>
<svg width="80.00px" height="80.00px" viewBox="0 0 48 48" version="1.1" xmlns="http://www.w3.org/2000/svg" xmlns:xlink="http://www.w3.org/1999/xlink"><title>Icon-Resource/Database/Res_Dense-Storage-Node_48_Light</title><g id="Icon-Resource/Database/Res_Dense-Storage-Node_48" stroke="none" stroke-width="1" fill="none" fill-rule="evenodd"><path d="M18.3391,24.6452 C18.4471,24.9082 18.5021,25.2232 18.5021,25.5952 C18.5021,26.3142 18.2711,26.8842 17.8041,27.3042 C17.3381,27.7252 16.6961,27.9352 15.8781,27.9352 C15.5221,27.9352 15.1651,27.8942 14.8101,27.8102 C14.4531,27.7272 14.1541,27.6172 13.9121,27.4802 L13.9121,26.2882 C14.1931,26.3932 14.5091,26.4832 14.8611,26.5542 C15.2141,26.6262 15.5141,26.6632 15.7651,26.6632 C16.1281,26.6632 16.4041,26.5782 16.5941,26.4072 C16.7831,26.2372 16.8781,25.9922 16.8781,25.6742 C16.8781,25.4392 16.8121,25.2412 16.6791,25.0782 C16.5471,24.9152 16.3241,24.7492 16.0141,24.5832 L15.4011,24.2532 C14.8401,23.9512 14.4391,23.6242 14.1961,23.2772 C13.9531,22.9282 13.8321,22.5032 13.8321,22.0032 C13.8321,21.5422 13.9391,21.1382 14.1521,20.7932 C14.3621,20.4492 14.6521,20.1842 15.0201,19.9982 C15.3881,19.8122 15.8101,19.7192 16.2871,19.7192 C16.8861,19.7192 17.4801,19.8562 18.0701,20.1292 L18.0701,21.3332 C17.4571,21.1062 16.9151,20.9932 16.4461,20.9932 C16.1281,20.9932 15.8781,21.0732 15.6961,21.2312 C15.5141,21.3902 15.4231,21.6102 15.4231,21.8902 C15.4231,22.1242 15.4831,22.3182 15.6001,22.4702 C15.7171,22.6222 15.9431,22.7882 16.2761,22.9702 L16.8891,23.2992 C17.2831,23.5112 17.5961,23.7242 17.8271,23.9352 C18.0581,24.1482 18.2291,24.3842 18.3391,24.6452 L18.3391,24.6452 Z M11.2871,23.9352 C11.2871,24.8222 11.1661,25.4792 10.9241,25.9072 C10.6821,26.3352 10.3151,26.5492 9.8211,26.5492 L9.1511,26.5492 L9.1511,21.1062 L9.8111,21.1062 C10.3181,21.1062 10.6921,21.3162 10.9301,21.7372 C11.1681,22.1572 11.2871,22.8142 11.2871,23.7082 L11.2871,23.9352 Z M9.9361,19.8902 L7.5611,19.8902 L7.5611,27.7642 L9.9921,27.7642 C10.9471,27.7642 11.6741,27.4312 12.1751,26.7652 C12.6741,26.0982 12.9241,25.1172 12.9241,23.8222 C12.9241,22.5342 12.6701,21.5572 12.1621,20.8902 C11.6551,20.2242 10.9121,19.8902 9.9361,19.8902 L9.9361,19.8902 Z M36.9591,26.4992 C36.4711,26.5662 36.0891,26.9662 36.0891,27.4732 L36.0891,30.4562 L33.7561,29.6772 L36.4441,25.7482 L36.9591,26.4992 Z M38.0891,34.3392 L43.9561,34.3392 L43.9561,28.4732 L38.0891,28.4732 L38.0891,34.3392 Z M33.7191,39.4842 L33.7191,37.0872 C33.7191,36.5352 33.2721,36.0872 32.7191,36.0872 L29.3701,36.0872 L32.5821,31.3932 L36.0891,32.5642 L36.0891,35.3392 C36.0891,35.8922 36.5361,36.3392 37.0891,36.3392 L37.9281,36.3392 C36.4071,37.4942 34.8421,38.6562 33.7191,39.4842 L33.7191,39.4842 Z M25.8531,43.9552 L31.7191,43.9552 L31.7191,38.0882 L25.8531,38.0882 L25.8531,43.9552 Z M23.1041,31.9692 C23.6561,31.9692 24.1041,31.5222 24.1041,30.9692 L24.1041,28.5642 L30.6101,30.7352 L26.9471,36.0872 L24.8531,36.0872 C24.6251,36.0872 24.4261,36.1762 24.2591,36.3042 L18.9271,31.9692 L23.1041,31.9692 Z M4.0001,29.9692 L22.1041,29.9692 L22.1041,17.9842 L4.0001,17.9842 L4.0001,29.9692 Z M24.2591,11.6502 C24.4271,11.7772 24.6251,11.8662 24.8531,11.8662 L26.9471,11.8662 L30.6101,17.2192 L24.1041,19.3902 L24.1041,16.9842 C24.1041,16.4312 23.6561,15.9842 23.1041,15.9842 L18.9271,15.9842 L24.2591,11.6502 Z M25.8531,9.8652 L31.7191,9.8652 L31.7191,3.9992 L25.8531,3.9992 L25.8531,9.8652 Z M37.9281,11.6142 L37.0891,11.6142 C36.5361,11.6142 36.0891,12.0612 36.0891,12.6142 L36.0891,15.3902 L32.5821,16.5612 L29.3701,11.8662 L32.7191,11.8662 C33.2721,11.8662 33.7191,11.4182 33.7191,10.8662 L33.7191,8.4702 C34.8421,9.2992 36.4071,10.4602 37.9281,11.6142 L37.9281,11.6142 Z M38.0891,19.4812 L43.9561,19.4812 L43.9561,13.6142 L38.0891,13.6142 L38.0891,19.4812 Z M33.7561,18.2772 L36.0891,17.4982 L36.0891,20.4812 C36.0891,20.9882 36.4711,21.3892 36.9591,21.4552 L36.4441,22.2072 L33.7561,18.2772 Z M24.1041,21.4992 L31.7831,18.9352 L35.2341,23.9772 L31.7831,29.0192 L24.1041,26.4572 L24.1041,21.4992 Z M39.3641,21.4812 L44.9561,21.4812 C45.5091,21.4812 45.9561,21.0342 45.9561,20.4812 L45.9561,12.6142 C45.9561,12.0612 45.5091,11.6142 44.9561,11.6142 L41.2091,11.6142 C38.5851,9.5642 34.9261,6.8732 33.7191,5.9882 L33.7191,2.9992 C33.7191,2.4472 33.2721,1.9992 32.7191,1.9992 L24.8531,1.9992 C24.3001,1.9992 23.8531,2.4472 23.8531,2.9992 L23.8531,9.4032 L15.7551,15.9842 L3.0001,15.9842 C2.4471,15.9842 2.0001,16.4312 2.0001,16.9842 L2.0001,30.9692 C2.0001,31.5222 2.4471,31.9692 3.0001,31.9692 L15.7551,31.9692 L23.8531,38.5522 L23.8531,44.9552 C23.8531,45.5072 24.3001,45.9552 24.8531,45.9552 L32.7191,45.9552 C33.2721,45.9552 33.7191,45.5072 33.7191,44.9552 L33.7191,41.9662 C34.9261,41.0822 38.5851,38.3892 41.2091,36.3392 L44.9561,36.3392 C45.5091,36.3392 45.9561,35.8922 45.9561,35.3392 L45.9561,27.4732 C45.9561,26.9202 45.5091,26.4732 44.9561,26.4732 L39.3641,26.4732 L37.6561,23.9772 L39.3641,21.4812 Z" id="Amazon-DATABASEAmazon-Dense-Storage-Node_Resource-Icon_light-bg" fill="#2E27AD"></path></g></svg>