<?xml version="1.0" encoding="UTF-8"?>
<svg width="80.00px" height="80.00px" viewBox="0 0 48 48" version="1.1" xmlns="http://www.w3.org/2000/svg" xmlns:xlink="http://www.w3.org/1999/xlink"><title>Icon-Resource/Database/Res_Dense-Compute-Node_48_Light</title><g id="Icon-Resource/Database/Res_Dense-Compute-Node_48" stroke="none" stroke-width="1" fill="none" fill-rule="evenodd"><path d="M17.4226,26.5417 C17.7706,26.5417 18.2656,26.4507 18.9086,26.2697 L18.9086,27.5177 C18.4096,27.7527 17.8506,27.8697 17.2286,27.8697 C15.1096,27.8697 14.0506,26.5307 14.0506,23.8507 C14.0506,22.5267 14.3266,21.5117 14.8786,20.8077 C15.4316,20.1047 16.2266,19.7517 17.2636,19.7517 C17.7926,19.7517 18.3116,19.8547 18.8186,20.0587 L18.8186,21.3077 C18.2966,21.1477 17.8416,21.0687 17.4556,21.0687 C16.8586,21.0687 16.4186,21.2787 16.1386,21.6987 C15.8596,22.1187 15.7196,22.7827 15.7196,23.6917 L15.7196,23.9527 C15.7196,24.8467 15.8556,25.5007 16.1276,25.9177 C16.4006,26.3327 16.8316,26.5417 17.4226,26.5417 L17.4226,26.5417 Z M11.2796,23.9187 C11.2796,24.8047 11.1586,25.4617 10.9166,25.8897 C10.6746,26.3167 10.3076,26.5307 9.8156,26.5307 L9.1466,26.5307 L9.1466,21.0917 L9.8046,21.0917 C10.3116,21.0917 10.6846,21.3017 10.9226,21.7217 C11.1606,22.1427 11.2796,22.7987 11.2796,23.6917 L11.2796,23.9187 Z M9.9296,19.8767 L7.5566,19.8767 L7.5566,27.7447 L9.9856,27.7447 C10.9406,27.7447 11.6656,27.4117 12.1656,26.7457 C12.6656,26.0797 12.9146,25.0997 12.9146,23.8057 C12.9146,22.5187 12.6606,21.5427 12.1536,20.8757 C11.6476,20.2097 10.9046,19.8767 9.9296,19.8767 L9.9296,19.8767 Z M36.9296,26.4797 C36.4416,26.5477 36.0606,26.9477 36.0606,27.4537 L36.0606,30.4327 L33.7316,29.6547 L36.4156,25.7307 L36.9296,26.4797 Z M38.0606,34.3127 L43.9196,34.3127 L43.9196,28.4537 L38.0606,28.4537 L38.0606,34.3127 Z M33.6936,39.4517 L33.6936,37.0607 C33.6936,36.5077 33.2456,36.0607 32.6936,36.0607 L29.3486,36.0607 L32.5576,31.3717 L36.0606,32.5407 L36.0606,35.3127 C36.0606,35.8657 36.5076,36.3127 37.0606,36.3127 L37.8956,36.3127 C36.3776,37.4657 34.8156,38.6247 33.6936,39.4517 L33.6936,39.4517 Z M25.8346,43.9197 L31.6936,43.9197 L31.6936,38.0607 L25.8346,38.0607 L25.8346,43.9197 Z M23.0866,31.9467 C23.6396,31.9467 24.0866,31.4997 24.0866,30.9467 L24.0866,28.5447 L30.5846,30.7127 L26.9256,36.0607 L24.8336,36.0607 C24.6076,36.0607 24.4086,36.1487 24.2406,36.2757 L18.9166,31.9467 L23.0866,31.9467 Z M3.9996,29.9477 L22.0866,29.9477 L22.0866,17.9737 L3.9996,17.9737 L3.9996,29.9477 Z M24.2406,11.6447 C24.4086,11.7707 24.6076,11.8597 24.8336,11.8597 L26.9256,11.8597 L30.5846,17.2077 L24.0866,19.3757 L24.0866,16.9737 C24.0866,16.4207 23.6396,15.9737 23.0866,15.9737 L18.9166,15.9737 L24.2406,11.6447 Z M25.8336,9.8597 L31.6926,9.8597 L31.6926,3.9997 L25.8336,3.9997 L25.8336,9.8597 Z M37.8956,11.6067 L37.0606,11.6067 C36.5076,11.6067 36.0606,12.0547 36.0606,12.6067 L36.0606,15.3807 L32.5576,16.5497 L29.3486,11.8597 L32.6936,11.8597 C33.2456,11.8597 33.6936,11.4127 33.6936,10.8597 L33.6936,8.4687 C34.8156,9.2957 36.3776,10.4557 37.8956,11.6067 L37.8956,11.6067 Z M38.0606,19.4667 L43.9196,19.4667 L43.9196,13.6077 L38.0606,13.6077 L38.0606,19.4667 Z M33.7316,18.2657 L36.0606,17.4877 L36.0606,20.4667 C36.0606,20.9737 36.4416,21.3737 36.9296,21.4397 L36.4156,22.1897 L33.7316,18.2657 Z M24.0866,21.4837 L31.7586,18.9237 L35.2046,23.9607 L31.7586,28.9967 L24.0866,26.4377 L24.0866,21.4837 Z M39.3336,21.4667 L44.9196,21.4667 C45.4726,21.4667 45.9196,21.0197 45.9196,20.4667 L45.9196,12.6067 C45.9196,12.0547 45.4726,11.6067 44.9196,11.6067 L41.1776,11.6067 C38.5556,9.5597 34.8996,6.8707 33.6936,5.9857 L33.6936,2.9997 C33.6936,2.4467 33.2456,1.9997 32.6936,1.9997 L24.8336,1.9997 C24.2806,1.9997 23.8336,2.4467 23.8336,2.9997 L23.8336,9.3967 L15.7446,15.9737 L2.9996,15.9737 C2.4466,15.9737 1.9996,16.4207 1.9996,16.9737 L1.9996,30.9467 C1.9996,31.4997 2.4466,31.9467 2.9996,31.9467 L15.7446,31.9467 L23.8336,38.5227 L23.8336,44.9197 C23.8336,45.4727 24.2806,45.9197 24.8336,45.9197 L32.6936,45.9197 C33.2456,45.9197 33.6936,45.4727 33.6936,44.9197 L33.6936,41.9347 C34.8996,41.0507 38.5556,38.3607 41.1776,36.3127 L44.9196,36.3127 C45.4726,36.3127 45.9196,35.8657 45.9196,35.3127 L45.9196,27.4537 C45.9196,26.9007 45.4726,26.4537 44.9196,26.4537 L39.3336,26.4537 L37.6276,23.9607 L39.3336,21.4667 Z" id="Amazon-DATABASEAmazon-Dense-Compute-Node_Resource-Icon_light-bg" fill="#2E27AD"></path></g></svg>