<?xml version="1.0" encoding="UTF-8"?>
<svg width="80.00px" height="80.00px" viewBox="0 0 64 64" version="1.1" xmlns="http://www.w3.org/2000/svg" xmlns:xlink="http://www.w3.org/1999/xlink"><!-- Generator: Sketch 64 (93537) - https://sketch.com -->
<title>Icon-Architecture/48/Arch_Amazon-S3-Standard_48</title><desc>Created with Sketch.</desc><defs><linearGradient x1="0%" y1="100%" x2="100%" y2="0%" id="linearGradient-1"><stop stop-color="#1B660F" offset="0%"></stop><stop stop-color="#6CAE3E" offset="100%"></stop></linearGradient></defs><g id="Icon-Architecture/48/Arch_Amazon-S3-Standard_48" stroke="none" stroke-width="1" fill="none" fill-rule="evenodd"><g id="Icon-Architecture-BG/48/Storage" fill="url(#linearGradient-1)"><rect id="Rectangle" x="0" y="0" width="64" height="64"></rect></g><path d="M48.18919,34.466 L48.4026209,32.903 C50.1019764,33.915 50.6906816,34.526 50.8838822,34.808 C50.5703106,34.856 49.819762,34.867 48.18919,34.466 L48.18919,34.466 Z M32.1929955,29 C32.1929955,29.551 31.7388225,30 31.1814744,30 C30.6231148,30 30.1699533,29.551 30.1699533,29 C30.1699533,28.449 30.6231148,28 31.1814744,28 C31.7388225,28 32.1929955,28.449 32.1929955,29 L32.1929955,29 Z M44.3201218,47.859 C44.3140527,47.903 44.3110181,47.947 44.3110181,47.992 C44.3110181,48.136 43.9418129,48.693 42.3011257,49.334 C41.5627153,49.622 40.6928072,49.881 39.7136548,50.103 C37.182829,50.681 34.0774593,51 30.9700665,51 C22.6695244,51 17.6301264,48.911 17.6301264,47.992 C17.6301264,47.952 17.6281033,47.913 17.6230457,47.873 L14.4256276,21.567 C17.9487555,23.815 24.7016703,25 31.1774283,25 C37.637002,25 44.3757555,23.82 47.9049526,21.582 L46.222793,33.915 C41.9936233,32.641 36.9785018,30.627 34.1796229,29.348 C34.1937842,29.233 34.2160377,29.119 34.2160377,29 C34.2160377,27.346 32.8545303,26 31.1814744,26 C29.507407,26 28.1469111,27.346 28.1469111,29 C28.1469111,30.654 29.507407,32 31.1814744,32 C32.0028295,32 32.747309,31.673 33.2935304,31.147 C36.0701558,32.417 41.3502959,34.569 45.9476592,35.925 L44.3201218,47.859 Z M31.1774283,13 C41.6770172,13 48.3773329,15.962 48.3773329,18 C48.3773329,20.039 41.6770172,23 31.1774283,23 C21.0349064,23 14.4569847,20.24 14.0189961,18.214 L13.9866274,17.949 C14.0958717,15.912 20.7628072,13 31.1774283,13 L31.1774283,13 Z M52.9686271,34.627 C52.7531731,33.486 51.4179653,32.282 48.6949505,30.759 L50.4165594,18.134 L50.4165594,18.131 C50.4185825,18.087 50.4256631,18.047 50.4256631,18.002 C50.4256631,13.455 40.4965721,11 31.1774283,11 C21.8582845,11 12,13.453 12,18 C12,18.237 12.0050576,18.456 12.0394493,18.694 L15.6080957,48.062 C15.7264437,51.658 25.0678409,53 30.9700665,53 C34.2261529,53 37.493366,52.663 40.1688393,52.052 C41.2450977,51.807 42.2121119,51.518 43.0435822,51.194 C45.1829493,50.358 46.2885419,49.307 46.3330488,48.07 L47.9160793,36.459 C48.9599691,36.706 49.8167274,36.832 50.5116424,36.832 C51.4948409,36.832 52.1573872,36.583 52.5812145,36.084 C52.9301893,35.673 53.0677562,35.155 52.9686271,34.627 L52.9686271,34.627 Z" id="Amazon-S3-Standard-Icon_48_Squid" fill="#FFFFFF"></path></g></svg>